<?xml version="1.0" encoding="utf-8"?>
<!-- Generator: Adobe Illustrator 18.1.1, SVG Export Plug-In . SVG Version: 6.00 Build 0)  -->
<svg version="1.1" id="objects" xmlns="http://www.w3.org/2000/svg" xmlns:xlink="http://www.w3.org/1999/xlink" x="0px" y="0px"
	 viewBox="0 0 88 30" style="enable-background:new 0 0 88 30;" xml:space="preserve">
<g>
	<path id="XMLID_1_" style="fill-rule:evenodd;clip-rule:evenodd;fill:#2A2B2C;" d="M66.8,26c6.1,0,11.1-5,11.1-11.1
		c0-6.1-5-11.1-11.1-11.1c-6.1,0-11.1,5-11.1,11.1C55.8,21,60.7,26,66.8,26z"/>
	<path style="fill:#F74E46;" d="M10.2,25.5c0.1-1.3,0.1-8.4,0.1-9.2V13c0-0.5-0.1-8.3-0.2-9h7.1c-0.1,0.5-0.2,6.4-0.2,6.9v1.2
		l7.9-0.6v-1.3c0-0.5-0.1-5.6-0.1-6.3h7c0,0.7-0.1,9.2-0.1,9.9v3c0,0.4,0.1,7.9,0.1,8.5h-7c0-1,0.1-5.9,0.1-6.5v-2.3l-7.9,0.6v1.1
		c0,1.4,0.1,6.4,0.1,7.1H10.2z"/>
	<path style="fill:#2A2B2C;" d="M44.7,4.3h-0.3c-2.7,4-10.4,17.4-11.2,18.8l5.3,3c0.6-1.3,1.6-3.5,1.8-3.8l8.4-0.5
		c0.3,0.5,1.7,3,2.5,4.3l5.5-3.4C55.5,21.2,48.1,8.3,44.7,4.3z"/>
</g>
<g>
</g>
<g>
</g>
<g>
</g>
<g>
</g>
<g>
</g>
<g>
</g>
<g>
</g>
<g>
</g>
<g>
</g>
<g>
</g>
<g>
</g>
<g>
</g>
<g>
</g>
<g>
</g>
<g>
</g>
</svg>
